<mxfile host="app.diagrams.net" modified="2023-04-10T15:41:11.357Z" agent="Mozilla/5.0 (Windows NT 10.0; Win64; x64; rv:109.0) Gecko/20100101 Firefox/111.0" etag="8z9KMKyrsxVLsepoIPRp" version="21.1.5" type="device">
  <diagram name="Page-1" id="tZmuZhvFetg6Z1Xfz2kT">
    <mxGraphModel dx="2434" dy="1871" grid="1" gridSize="10" guides="1" tooltips="1" connect="1" arrows="1" fold="1" page="1" pageScale="1" pageWidth="827" pageHeight="1169" math="0" shadow="0">
      <root>
        <mxCell id="0" />
        <mxCell id="1" parent="0" />
        <mxCell id="4cX4B9I3oI0uWcWU1Viy-1" value="Position" style="swimlane;fontStyle=1;align=center;verticalAlign=top;childLayout=stackLayout;horizontal=1;startSize=26;horizontalStack=0;resizeParent=1;resizeParentMax=0;resizeLast=0;collapsible=1;marginBottom=0;whiteSpace=wrap;html=1;" vertex="1" parent="1">
          <mxGeometry x="-940" y="-470" width="160" height="116" as="geometry" />
        </mxCell>
        <mxCell id="4cX4B9I3oI0uWcWU1Viy-2" value="-vector2i pos" style="text;strokeColor=none;fillColor=none;align=left;verticalAlign=top;spacingLeft=4;spacingRight=4;overflow=hidden;rotatable=0;points=[[0,0.5],[1,0.5]];portConstraint=eastwest;whiteSpace=wrap;html=1;" vertex="1" parent="4cX4B9I3oI0uWcWU1Viy-1">
          <mxGeometry y="26" width="160" height="26" as="geometry" />
        </mxCell>
        <mxCell id="4cX4B9I3oI0uWcWU1Viy-3" value="" style="line;strokeWidth=1;fillColor=none;align=left;verticalAlign=middle;spacingTop=-1;spacingLeft=3;spacingRight=3;rotatable=0;labelPosition=right;points=[];portConstraint=eastwest;strokeColor=inherit;" vertex="1" parent="4cX4B9I3oI0uWcWU1Viy-1">
          <mxGeometry y="52" width="160" height="8" as="geometry" />
        </mxCell>
        <mxCell id="4cX4B9I3oI0uWcWU1Viy-4" value="+ setPos(vecor2i p): bool" style="text;strokeColor=none;fillColor=none;align=left;verticalAlign=top;spacingLeft=4;spacingRight=4;overflow=hidden;rotatable=0;points=[[0,0.5],[1,0.5]];portConstraint=eastwest;whiteSpace=wrap;html=1;" vertex="1" parent="4cX4B9I3oI0uWcWU1Viy-1">
          <mxGeometry y="60" width="160" height="26" as="geometry" />
        </mxCell>
        <mxCell id="4cX4B9I3oI0uWcWU1Viy-5" value="+getPos() : vector2i" style="text;html=1;strokeColor=none;fillColor=none;align=center;verticalAlign=middle;whiteSpace=wrap;rounded=0;" vertex="1" parent="4cX4B9I3oI0uWcWU1Viy-1">
          <mxGeometry y="86" width="160" height="30" as="geometry" />
        </mxCell>
        <mxCell id="4cX4B9I3oI0uWcWU1Viy-6" value="InteractTilePos" style="swimlane;fontStyle=1;align=center;verticalAlign=top;childLayout=stackLayout;horizontal=1;startSize=26;horizontalStack=0;resizeParent=1;resizeParentMax=0;resizeLast=0;collapsible=1;marginBottom=0;whiteSpace=wrap;html=1;" vertex="1" parent="1">
          <mxGeometry x="-940" y="-300" width="160" height="124" as="geometry" />
        </mxCell>
        <mxCell id="4cX4B9I3oI0uWcWU1Viy-7" value="- int InteractRange" style="text;html=1;strokeColor=none;fillColor=none;align=center;verticalAlign=middle;whiteSpace=wrap;rounded=0;" vertex="1" parent="4cX4B9I3oI0uWcWU1Viy-6">
          <mxGeometry y="26" width="160" height="30" as="geometry" />
        </mxCell>
        <mxCell id="4cX4B9I3oI0uWcWU1Viy-8" value="" style="line;strokeWidth=1;fillColor=none;align=left;verticalAlign=middle;spacingTop=-1;spacingLeft=3;spacingRight=3;rotatable=0;labelPosition=right;points=[];portConstraint=eastwest;strokeColor=inherit;" vertex="1" parent="4cX4B9I3oI0uWcWU1Viy-6">
          <mxGeometry y="56" width="160" height="8" as="geometry" />
        </mxCell>
        <mxCell id="4cX4B9I3oI0uWcWU1Viy-9" value="&lt;div&gt;&lt;blockquote&gt;+InteractInRange(): vecror&amp;lt;Tiles*&amp;gt;&lt;br&gt;&lt;/blockquote&gt;&lt;/div&gt;" style="text;html=1;strokeColor=none;fillColor=none;align=left;verticalAlign=middle;whiteSpace=wrap;rounded=0;" vertex="1" parent="4cX4B9I3oI0uWcWU1Viy-6">
          <mxGeometry y="64" width="160" height="30" as="geometry" />
        </mxCell>
        <mxCell id="4cX4B9I3oI0uWcWU1Viy-10" value="+UseInteraction(): bool" style="text;html=1;strokeColor=none;fillColor=none;align=center;verticalAlign=middle;whiteSpace=wrap;rounded=0;" vertex="1" parent="4cX4B9I3oI0uWcWU1Viy-6">
          <mxGeometry y="94" width="160" height="30" as="geometry" />
        </mxCell>
        <mxCell id="4cX4B9I3oI0uWcWU1Viy-13" value="" style="endArrow=block;html=1;rounded=0;entryX=0.5;entryY=1;entryDx=0;entryDy=0;exitX=0.5;exitY=0;exitDx=0;exitDy=0;endFill=0;" edge="1" parent="1" source="4cX4B9I3oI0uWcWU1Viy-6" target="4cX4B9I3oI0uWcWU1Viy-1">
          <mxGeometry width="50" height="50" relative="1" as="geometry">
            <mxPoint x="-760" y="-320" as="sourcePoint" />
            <mxPoint x="-710" y="-370" as="targetPoint" />
          </mxGeometry>
        </mxCell>
        <mxCell id="4cX4B9I3oI0uWcWU1Viy-15" value="GameWorld" style="swimlane;fontStyle=1;align=center;verticalAlign=top;childLayout=stackLayout;horizontal=1;startSize=26;horizontalStack=0;resizeParent=1;resizeParentMax=0;resizeLast=0;collapsible=1;marginBottom=0;whiteSpace=wrap;html=1;" vertex="1" parent="1">
          <mxGeometry x="-460" y="-670" width="210" height="236" as="geometry" />
        </mxCell>
        <mxCell id="4cX4B9I3oI0uWcWU1Viy-19" value="&lt;div&gt;-vector2i MapDim&lt;/div&gt;" style="text;html=1;strokeColor=none;fillColor=none;align=center;verticalAlign=middle;whiteSpace=wrap;rounded=0;" vertex="1" parent="4cX4B9I3oI0uWcWU1Viy-15">
          <mxGeometry y="26" width="210" height="30" as="geometry" />
        </mxCell>
        <mxCell id="4cX4B9I3oI0uWcWU1Viy-16" value="&lt;div&gt;- vector&amp;lt;vector&amp;lt;GameTile*&amp;gt;&amp;gt; Tiles&lt;/div&gt;&lt;div&gt;&lt;br&gt;&lt;/div&gt;" style="text;strokeColor=none;fillColor=none;align=left;verticalAlign=top;spacingLeft=4;spacingRight=4;overflow=hidden;rotatable=0;points=[[0,0.5],[1,0.5]];portConstraint=eastwest;whiteSpace=wrap;html=1;" vertex="1" parent="4cX4B9I3oI0uWcWU1Viy-15">
          <mxGeometry y="56" width="210" height="26" as="geometry" />
        </mxCell>
        <mxCell id="4cX4B9I3oI0uWcWU1Viy-17" value="" style="line;strokeWidth=1;fillColor=none;align=left;verticalAlign=middle;spacingTop=-1;spacingLeft=3;spacingRight=3;rotatable=0;labelPosition=right;points=[];portConstraint=eastwest;strokeColor=inherit;" vertex="1" parent="4cX4B9I3oI0uWcWU1Viy-15">
          <mxGeometry y="82" width="210" height="8" as="geometry" />
        </mxCell>
        <mxCell id="4cX4B9I3oI0uWcWU1Viy-22" value="- setUpDecor() : bool" style="text;html=1;strokeColor=none;fillColor=none;align=center;verticalAlign=middle;whiteSpace=wrap;rounded=0;" vertex="1" parent="4cX4B9I3oI0uWcWU1Viy-15">
          <mxGeometry y="90" width="210" height="30" as="geometry" />
        </mxCell>
        <mxCell id="4cX4B9I3oI0uWcWU1Viy-23" value="&lt;div&gt;-setUpInteractTiles() : bool&lt;/div&gt;" style="text;html=1;strokeColor=none;fillColor=none;align=center;verticalAlign=middle;whiteSpace=wrap;rounded=0;" vertex="1" parent="4cX4B9I3oI0uWcWU1Viy-15">
          <mxGeometry y="120" width="210" height="30" as="geometry" />
        </mxCell>
        <mxCell id="4cX4B9I3oI0uWcWU1Viy-18" value="&lt;div&gt;-setUpState() : bool&lt;/div&gt;" style="text;strokeColor=none;fillColor=none;align=left;verticalAlign=top;spacingLeft=4;spacingRight=4;overflow=hidden;rotatable=0;points=[[0,0.5],[1,0.5]];portConstraint=eastwest;whiteSpace=wrap;html=1;" vertex="1" parent="4cX4B9I3oI0uWcWU1Viy-15">
          <mxGeometry y="150" width="210" height="26" as="geometry" />
        </mxCell>
        <mxCell id="4cX4B9I3oI0uWcWU1Viy-41" value="-getTile(GameTile*): GameTile*" style="text;html=1;strokeColor=none;fillColor=none;align=center;verticalAlign=middle;whiteSpace=wrap;rounded=0;" vertex="1" parent="4cX4B9I3oI0uWcWU1Viy-15">
          <mxGeometry y="176" width="210" height="30" as="geometry" />
        </mxCell>
        <mxCell id="4cX4B9I3oI0uWcWU1Viy-40" value="-addTile(GameTile*, Position*) : bool " style="text;html=1;strokeColor=none;fillColor=none;align=center;verticalAlign=middle;whiteSpace=wrap;rounded=0;" vertex="1" parent="4cX4B9I3oI0uWcWU1Viy-15">
          <mxGeometry y="206" width="210" height="30" as="geometry" />
        </mxCell>
        <mxCell id="4cX4B9I3oI0uWcWU1Viy-24" value="&lt;i&gt;GameTile&lt;/i&gt;" style="swimlane;fontStyle=1;align=center;verticalAlign=top;childLayout=stackLayout;horizontal=1;startSize=26;horizontalStack=0;resizeParent=1;resizeParentMax=0;resizeLast=0;collapsible=1;marginBottom=0;whiteSpace=wrap;html=1;" vertex="1" parent="1">
          <mxGeometry x="-500" y="-220" width="230" height="146" as="geometry" />
        </mxCell>
        <mxCell id="4cX4B9I3oI0uWcWU1Viy-30" value="- String name" style="text;html=1;strokeColor=none;fillColor=none;align=center;verticalAlign=middle;whiteSpace=wrap;rounded=0;" vertex="1" parent="4cX4B9I3oI0uWcWU1Viy-24">
          <mxGeometry y="26" width="230" height="30" as="geometry" />
        </mxCell>
        <mxCell id="4cX4B9I3oI0uWcWU1Viy-28" value="- Texture :skin" style="text;html=1;strokeColor=none;fillColor=none;align=center;verticalAlign=middle;whiteSpace=wrap;rounded=0;" vertex="1" parent="4cX4B9I3oI0uWcWU1Viy-24">
          <mxGeometry y="56" width="230" height="30" as="geometry" />
        </mxCell>
        <mxCell id="4cX4B9I3oI0uWcWU1Viy-25" value="&lt;div&gt;- Sprite : sprite&lt;/div&gt;" style="text;strokeColor=none;fillColor=none;align=left;verticalAlign=top;spacingLeft=4;spacingRight=4;overflow=hidden;rotatable=0;points=[[0,0.5],[1,0.5]];portConstraint=eastwest;whiteSpace=wrap;html=1;" vertex="1" parent="4cX4B9I3oI0uWcWU1Viy-24">
          <mxGeometry y="86" width="230" height="26" as="geometry" />
        </mxCell>
        <mxCell id="4cX4B9I3oI0uWcWU1Viy-26" value="" style="line;strokeWidth=1;fillColor=none;align=left;verticalAlign=middle;spacingTop=-1;spacingLeft=3;spacingRight=3;rotatable=0;labelPosition=right;points=[];portConstraint=eastwest;strokeColor=inherit;" vertex="1" parent="4cX4B9I3oI0uWcWU1Viy-24">
          <mxGeometry y="112" width="230" height="8" as="geometry" />
        </mxCell>
        <mxCell id="4cX4B9I3oI0uWcWU1Viy-27" value="-setUpSprites(string : spriteName) :bool" style="text;strokeColor=none;fillColor=none;align=left;verticalAlign=top;spacingLeft=4;spacingRight=4;overflow=hidden;rotatable=0;points=[[0,0.5],[1,0.5]];portConstraint=eastwest;whiteSpace=wrap;html=1;" vertex="1" parent="4cX4B9I3oI0uWcWU1Viy-24">
          <mxGeometry y="120" width="230" height="26" as="geometry" />
        </mxCell>
        <mxCell id="4cX4B9I3oI0uWcWU1Viy-31" value="" style="endArrow=diamondThin;html=1;rounded=0;entryX=0.5;entryY=1;entryDx=0;entryDy=0;exitX=0.5;exitY=0;exitDx=0;exitDy=0;endFill=1;" edge="1" parent="1" source="4cX4B9I3oI0uWcWU1Viy-24" target="4cX4B9I3oI0uWcWU1Viy-40">
          <mxGeometry width="50" height="50" relative="1" as="geometry">
            <mxPoint x="-390" y="-50" as="sourcePoint" />
            <mxPoint x="-300" y="-270" as="targetPoint" />
          </mxGeometry>
        </mxCell>
        <mxCell id="4cX4B9I3oI0uWcWU1Viy-32" value="GraphiqueInterface" style="swimlane;fontStyle=1;align=center;verticalAlign=top;childLayout=stackLayout;horizontal=1;startSize=26;horizontalStack=0;resizeParent=1;resizeParentMax=0;resizeLast=0;collapsible=1;marginBottom=0;whiteSpace=wrap;html=1;" vertex="1" parent="1">
          <mxGeometry x="-80" y="-780" width="160" height="34" as="geometry" />
        </mxCell>
        <mxCell id="4cX4B9I3oI0uWcWU1Viy-34" value="" style="line;strokeWidth=1;fillColor=none;align=left;verticalAlign=middle;spacingTop=-1;spacingLeft=3;spacingRight=3;rotatable=0;labelPosition=right;points=[];portConstraint=eastwest;strokeColor=inherit;" vertex="1" parent="4cX4B9I3oI0uWcWU1Viy-32">
          <mxGeometry y="26" width="160" height="8" as="geometry" />
        </mxCell>
        <mxCell id="4cX4B9I3oI0uWcWU1Viy-36" value="Input" style="swimlane;fontStyle=1;align=center;verticalAlign=top;childLayout=stackLayout;horizontal=1;startSize=26;horizontalStack=0;resizeParent=1;resizeParentMax=0;resizeLast=0;collapsible=1;marginBottom=0;whiteSpace=wrap;html=1;" vertex="1" parent="1">
          <mxGeometry x="-700" y="-760" width="160" height="34" as="geometry" />
        </mxCell>
        <mxCell id="4cX4B9I3oI0uWcWU1Viy-38" value="" style="line;strokeWidth=1;fillColor=none;align=left;verticalAlign=middle;spacingTop=-1;spacingLeft=3;spacingRight=3;rotatable=0;labelPosition=right;points=[];portConstraint=eastwest;strokeColor=inherit;" vertex="1" parent="4cX4B9I3oI0uWcWU1Viy-36">
          <mxGeometry y="26" width="160" height="8" as="geometry" />
        </mxCell>
        <mxCell id="4cX4B9I3oI0uWcWU1Viy-42" value="Personnage" style="swimlane;fontStyle=2;align=center;verticalAlign=top;childLayout=stackLayout;horizontal=1;startSize=26;horizontalStack=0;resizeParent=1;resizeLast=0;collapsible=1;marginBottom=0;rounded=0;shadow=0;strokeWidth=1;" vertex="1" parent="1">
          <mxGeometry x="-900" y="-50" width="220" height="300" as="geometry">
            <mxRectangle x="230" y="140" width="160" height="26" as="alternateBounds" />
          </mxGeometry>
        </mxCell>
        <mxCell id="4cX4B9I3oI0uWcWU1Viy-44" value="- Arme arme[ ]" style="text;align=left;verticalAlign=top;spacingLeft=4;spacingRight=4;overflow=hidden;rotatable=0;points=[[0,0.5],[1,0.5]];portConstraint=eastwest;rounded=0;shadow=0;html=0;" vertex="1" parent="4cX4B9I3oI0uWcWU1Viy-42">
          <mxGeometry y="26" width="220" height="26" as="geometry" />
        </mxCell>
        <mxCell id="4cX4B9I3oI0uWcWU1Viy-45" value="&lt;div align=&quot;left&quot;&gt;-&amp;nbsp; HP hp&lt;br&gt;&lt;/div&gt;" style="text;html=1;strokeColor=none;fillColor=none;align=left;verticalAlign=middle;whiteSpace=wrap;rounded=0;" vertex="1" parent="4cX4B9I3oI0uWcWU1Viy-42">
          <mxGeometry y="52" width="220" height="30" as="geometry" />
        </mxCell>
        <mxCell id="4cX4B9I3oI0uWcWU1Viy-46" value="&lt;div align=&quot;left&quot;&gt;-&amp;nbsp; InteractTilePos position&lt;br&gt;&lt;/div&gt;" style="text;html=1;strokeColor=none;fillColor=none;align=left;verticalAlign=middle;whiteSpace=wrap;rounded=0;" vertex="1" parent="4cX4B9I3oI0uWcWU1Viy-42">
          <mxGeometry y="82" width="220" height="30" as="geometry" />
        </mxCell>
        <mxCell id="4cX4B9I3oI0uWcWU1Viy-47" value="&lt;div&gt;-&amp;nbsp; bool estEnVie&lt;br&gt;&lt;/div&gt;" style="text;html=1;strokeColor=none;fillColor=none;align=left;verticalAlign=middle;whiteSpace=wrap;rounded=0;" vertex="1" parent="4cX4B9I3oI0uWcWU1Viy-42">
          <mxGeometry y="112" width="220" height="30" as="geometry" />
        </mxCell>
        <mxCell id="4cX4B9I3oI0uWcWU1Viy-48" value="" style="line;html=1;strokeWidth=1;align=left;verticalAlign=middle;spacingTop=-1;spacingLeft=3;spacingRight=3;rotatable=0;labelPosition=right;points=[];portConstraint=eastwest;" vertex="1" parent="4cX4B9I3oI0uWcWU1Viy-42">
          <mxGeometry y="142" width="220" height="8" as="geometry" />
        </mxCell>
        <mxCell id="4cX4B9I3oI0uWcWU1Viy-49" value="+ Attack() : void" style="text;html=1;strokeColor=none;fillColor=none;align=center;verticalAlign=middle;whiteSpace=wrap;rounded=0;" vertex="1" parent="4cX4B9I3oI0uWcWU1Viy-42">
          <mxGeometry y="150" width="220" height="30" as="geometry" />
        </mxCell>
        <mxCell id="4cX4B9I3oI0uWcWU1Viy-50" value="+ moveto(int x , int y) : int[2]" style="text;html=1;strokeColor=none;fillColor=none;align=center;verticalAlign=middle;whiteSpace=wrap;rounded=0;" vertex="1" parent="4cX4B9I3oI0uWcWU1Viy-42">
          <mxGeometry y="180" width="220" height="30" as="geometry" />
        </mxCell>
        <mxCell id="4cX4B9I3oI0uWcWU1Viy-53" value="Player" style="swimlane;fontStyle=0;align=center;verticalAlign=top;childLayout=stackLayout;horizontal=1;startSize=26;horizontalStack=0;resizeParent=1;resizeLast=0;collapsible=1;marginBottom=0;rounded=0;shadow=0;strokeWidth=1;" vertex="1" parent="1">
          <mxGeometry x="-1140" y="330" width="220" height="390" as="geometry">
            <mxRectangle x="230" y="140" width="160" height="26" as="alternateBounds" />
          </mxGeometry>
        </mxCell>
        <mxCell id="4cX4B9I3oI0uWcWU1Viy-54" value="- Object bag[10]" style="text;align=left;verticalAlign=top;spacingLeft=4;spacingRight=4;overflow=hidden;rotatable=0;points=[[0,0.5],[1,0.5]];portConstraint=eastwest;rounded=0;shadow=0;html=0;" vertex="1" parent="4cX4B9I3oI0uWcWU1Viy-53">
          <mxGeometry y="26" width="220" height="26" as="geometry" />
        </mxCell>
        <mxCell id="4cX4B9I3oI0uWcWU1Viy-55" value="&lt;div align=&quot;left&quot;&gt;-&amp;nbsp; armure armure[3]&lt;/div&gt;" style="text;html=1;strokeColor=none;fillColor=none;align=left;verticalAlign=middle;whiteSpace=wrap;rounded=0;" vertex="1" parent="4cX4B9I3oI0uWcWU1Viy-53">
          <mxGeometry y="52" width="220" height="30" as="geometry" />
        </mxCell>
        <mxCell id="4cX4B9I3oI0uWcWU1Viy-56" value="" style="line;html=1;strokeWidth=1;align=left;verticalAlign=middle;spacingTop=-1;spacingLeft=3;spacingRight=3;rotatable=0;labelPosition=right;points=[];portConstraint=eastwest;" vertex="1" parent="4cX4B9I3oI0uWcWU1Viy-53">
          <mxGeometry y="82" width="220" height="8" as="geometry" />
        </mxCell>
        <mxCell id="4cX4B9I3oI0uWcWU1Viy-57" value="+ AddOject(Object o) : void" style="text;html=1;strokeColor=none;fillColor=none;align=center;verticalAlign=middle;whiteSpace=wrap;rounded=0;" vertex="1" parent="4cX4B9I3oI0uWcWU1Viy-53">
          <mxGeometry y="90" width="220" height="30" as="geometry" />
        </mxCell>
        <mxCell id="4cX4B9I3oI0uWcWU1Viy-51" value="+ baisseHp(int i) : void" style="text;html=1;strokeColor=none;fillColor=none;align=center;verticalAlign=middle;whiteSpace=wrap;rounded=0;" vertex="1" parent="4cX4B9I3oI0uWcWU1Viy-53">
          <mxGeometry y="120" width="220" height="30" as="geometry" />
        </mxCell>
        <mxCell id="4cX4B9I3oI0uWcWU1Viy-52" value="+ augmenteHp(int i) : void" style="text;html=1;strokeColor=none;fillColor=none;align=center;verticalAlign=middle;whiteSpace=wrap;rounded=0;" vertex="1" parent="4cX4B9I3oI0uWcWU1Viy-53">
          <mxGeometry y="150" width="220" height="30" as="geometry" />
        </mxCell>
        <mxCell id="4cX4B9I3oI0uWcWU1Viy-59" value="+ AddArmes(Arme a) : void" style="text;html=1;strokeColor=none;fillColor=none;align=center;verticalAlign=middle;whiteSpace=wrap;rounded=0;" vertex="1" parent="4cX4B9I3oI0uWcWU1Viy-53">
          <mxGeometry y="180" width="220" height="30" as="geometry" />
        </mxCell>
        <mxCell id="4cX4B9I3oI0uWcWU1Viy-60" value="+ addArmure(armure) :void" style="text;html=1;strokeColor=none;fillColor=none;align=center;verticalAlign=middle;whiteSpace=wrap;rounded=0;" vertex="1" parent="4cX4B9I3oI0uWcWU1Viy-53">
          <mxGeometry y="210" width="220" height="30" as="geometry" />
        </mxCell>
        <mxCell id="4cX4B9I3oI0uWcWU1Viy-61" value="+ discardArmure(armure) :void" style="text;html=1;strokeColor=none;fillColor=none;align=center;verticalAlign=middle;whiteSpace=wrap;rounded=0;" vertex="1" parent="4cX4B9I3oI0uWcWU1Viy-53">
          <mxGeometry y="240" width="220" height="30" as="geometry" />
        </mxCell>
        <mxCell id="4cX4B9I3oI0uWcWU1Viy-72" value="+ armSwitch() : bool" style="text;html=1;strokeColor=none;fillColor=none;align=center;verticalAlign=middle;whiteSpace=wrap;rounded=0;" vertex="1" parent="4cX4B9I3oI0uWcWU1Viy-53">
          <mxGeometry y="270" width="220" height="30" as="geometry" />
        </mxCell>
        <mxCell id="4cX4B9I3oI0uWcWU1Viy-131" value="+ useObject(Potion*) : bool" style="text;html=1;strokeColor=none;fillColor=none;align=center;verticalAlign=middle;whiteSpace=wrap;rounded=0;" vertex="1" parent="4cX4B9I3oI0uWcWU1Viy-53">
          <mxGeometry y="300" width="220" height="30" as="geometry" />
        </mxCell>
        <mxCell id="4cX4B9I3oI0uWcWU1Viy-132" value="+ useObject(Arme*) : bool" style="text;html=1;strokeColor=none;fillColor=none;align=center;verticalAlign=middle;whiteSpace=wrap;rounded=0;" vertex="1" parent="4cX4B9I3oI0uWcWU1Viy-53">
          <mxGeometry y="330" width="220" height="30" as="geometry" />
        </mxCell>
        <mxCell id="4cX4B9I3oI0uWcWU1Viy-62" value="&lt;i&gt;InteractTile&lt;/i&gt;" style="swimlane;fontStyle=1;align=center;verticalAlign=top;childLayout=stackLayout;horizontal=1;startSize=26;horizontalStack=0;resizeParent=1;resizeParentMax=0;resizeLast=0;collapsible=1;marginBottom=0;whiteSpace=wrap;html=1;" vertex="1" parent="1">
          <mxGeometry x="-540" y="50" width="160" height="60" as="geometry" />
        </mxCell>
        <mxCell id="4cX4B9I3oI0uWcWU1Viy-63" value="- InteractTilePos position" style="text;strokeColor=none;fillColor=none;align=left;verticalAlign=top;spacingLeft=4;spacingRight=4;overflow=hidden;rotatable=0;points=[[0,0.5],[1,0.5]];portConstraint=eastwest;whiteSpace=wrap;html=1;" vertex="1" parent="4cX4B9I3oI0uWcWU1Viy-62">
          <mxGeometry y="26" width="160" height="26" as="geometry" />
        </mxCell>
        <mxCell id="4cX4B9I3oI0uWcWU1Viy-64" value="" style="line;strokeWidth=1;fillColor=none;align=left;verticalAlign=middle;spacingTop=-1;spacingLeft=3;spacingRight=3;rotatable=0;labelPosition=right;points=[];portConstraint=eastwest;strokeColor=inherit;" vertex="1" parent="4cX4B9I3oI0uWcWU1Viy-62">
          <mxGeometry y="52" width="160" height="8" as="geometry" />
        </mxCell>
        <mxCell id="4cX4B9I3oI0uWcWU1Viy-70" value="&lt;div&gt;Attack(), fait appel à la fonction &lt;br&gt;&lt;/div&gt;&lt;div&gt;&lt;blockquote&gt;+InteractInRange(): vecror&amp;lt;Tiles*&amp;gt;, pour savoir si c&#39;est possible&lt;br&gt;&lt;/blockquote&gt;&lt;/div&gt;" style="shape=note2;boundedLbl=1;whiteSpace=wrap;html=1;size=25;verticalAlign=top;align=center;" vertex="1" parent="1">
          <mxGeometry x="-1100" y="60" width="140" height="110" as="geometry" />
        </mxCell>
        <mxCell id="4cX4B9I3oI0uWcWU1Viy-71" value="" style="html=1;verticalAlign=bottom;labelBackgroundColor=none;endArrow=none;endFill=0;endSize=2;rounded=0;exitX=0;exitY=0;exitDx=140;exitDy=67.5;exitPerimeter=0;entryX=0;entryY=0.5;entryDx=0;entryDy=0;" edge="1" parent="1" source="4cX4B9I3oI0uWcWU1Viy-70" target="4cX4B9I3oI0uWcWU1Viy-49">
          <mxGeometry width="160" relative="1" as="geometry">
            <mxPoint x="-840" y="50" as="sourcePoint" />
            <mxPoint x="-680" y="50" as="targetPoint" />
          </mxGeometry>
        </mxCell>
        <mxCell id="4cX4B9I3oI0uWcWU1Viy-73" value="" style="endArrow=block;html=1;rounded=0;entryX=0.5;entryY=1;entryDx=0;entryDy=0;exitX=0.5;exitY=0;exitDx=0;exitDy=0;endFill=0;" edge="1" parent="1" source="4cX4B9I3oI0uWcWU1Viy-53" target="4cX4B9I3oI0uWcWU1Viy-42">
          <mxGeometry width="50" height="50" relative="1" as="geometry">
            <mxPoint x="-780" y="420" as="sourcePoint" />
            <mxPoint x="-730" y="370" as="targetPoint" />
          </mxGeometry>
        </mxCell>
        <mxCell id="4cX4B9I3oI0uWcWU1Viy-74" value="" style="endArrow=block;html=1;rounded=0;entryX=0.5;entryY=1;entryDx=0;entryDy=0;exitX=0.5;exitY=0;exitDx=0;exitDy=0;endFill=0;" edge="1" parent="1" source="4cX4B9I3oI0uWcWU1Viy-42" target="4cX4B9I3oI0uWcWU1Viy-24">
          <mxGeometry width="50" height="50" relative="1" as="geometry">
            <mxPoint x="-540" y="80" as="sourcePoint" />
            <mxPoint x="-490" y="30" as="targetPoint" />
          </mxGeometry>
        </mxCell>
        <mxCell id="4cX4B9I3oI0uWcWU1Viy-75" value="" style="endArrow=block;html=1;rounded=0;exitX=0.5;exitY=0;exitDx=0;exitDy=0;entryX=0.641;entryY=1.077;entryDx=0;entryDy=0;entryPerimeter=0;endFill=0;" edge="1" parent="1" source="4cX4B9I3oI0uWcWU1Viy-62" target="4cX4B9I3oI0uWcWU1Viy-27">
          <mxGeometry width="50" height="50" relative="1" as="geometry">
            <mxPoint x="-620" y="40" as="sourcePoint" />
            <mxPoint x="-380" y="-80" as="targetPoint" />
          </mxGeometry>
        </mxCell>
        <mxCell id="4cX4B9I3oI0uWcWU1Viy-77" value="chest" style="swimlane;fontStyle=1;align=center;verticalAlign=top;childLayout=stackLayout;horizontal=1;startSize=26;horizontalStack=0;resizeParent=1;resizeParentMax=0;resizeLast=0;collapsible=1;marginBottom=0;whiteSpace=wrap;html=1;" vertex="1" parent="1">
          <mxGeometry x="-650" y="180" width="160" height="124" as="geometry" />
        </mxCell>
        <mxCell id="4cX4B9I3oI0uWcWU1Viy-138" value="- Object: gift" style="text;html=1;strokeColor=none;fillColor=none;align=center;verticalAlign=middle;whiteSpace=wrap;rounded=0;" vertex="1" parent="4cX4B9I3oI0uWcWU1Viy-77">
          <mxGeometry y="26" width="160" height="30" as="geometry" />
        </mxCell>
        <mxCell id="4cX4B9I3oI0uWcWU1Viy-140" value="-isOpen :bool" style="text;html=1;strokeColor=none;fillColor=none;align=center;verticalAlign=middle;whiteSpace=wrap;rounded=0;" vertex="1" parent="4cX4B9I3oI0uWcWU1Viy-77">
          <mxGeometry y="56" width="160" height="30" as="geometry" />
        </mxCell>
        <mxCell id="4cX4B9I3oI0uWcWU1Viy-79" value="" style="line;strokeWidth=1;fillColor=none;align=left;verticalAlign=middle;spacingTop=-1;spacingLeft=3;spacingRight=3;rotatable=0;labelPosition=right;points=[];portConstraint=eastwest;strokeColor=inherit;" vertex="1" parent="4cX4B9I3oI0uWcWU1Viy-77">
          <mxGeometry y="86" width="160" height="8" as="geometry" />
        </mxCell>
        <mxCell id="4cX4B9I3oI0uWcWU1Viy-139" value="+ open(): Object" style="text;html=1;strokeColor=none;fillColor=none;align=center;verticalAlign=middle;whiteSpace=wrap;rounded=0;" vertex="1" parent="4cX4B9I3oI0uWcWU1Viy-77">
          <mxGeometry y="94" width="160" height="30" as="geometry" />
        </mxCell>
        <mxCell id="4cX4B9I3oI0uWcWU1Viy-80" value="Armure" style="swimlane;fontStyle=2;align=center;verticalAlign=top;childLayout=stackLayout;horizontal=1;startSize=26;horizontalStack=0;resizeParent=1;resizeLast=0;collapsible=1;marginBottom=0;rounded=0;shadow=0;strokeWidth=1;" vertex="1" parent="1">
          <mxGeometry x="80" y="556" width="160" height="84" as="geometry">
            <mxRectangle x="550" y="140" width="160" height="26" as="alternateBounds" />
          </mxGeometry>
        </mxCell>
        <mxCell id="4cX4B9I3oI0uWcWU1Viy-84" value="" style="line;html=1;strokeWidth=1;align=left;verticalAlign=middle;spacingTop=-1;spacingLeft=3;spacingRight=3;rotatable=0;labelPosition=right;points=[];portConstraint=eastwest;" vertex="1" parent="4cX4B9I3oI0uWcWU1Viy-80">
          <mxGeometry y="26" width="160" height="8" as="geometry" />
        </mxCell>
        <mxCell id="4cX4B9I3oI0uWcWU1Viy-85" value="+ baisserHp(int n) :void" style="text;html=1;strokeColor=none;fillColor=none;align=center;verticalAlign=middle;whiteSpace=wrap;rounded=0;" vertex="1" parent="4cX4B9I3oI0uWcWU1Viy-80">
          <mxGeometry y="34" width="160" height="30" as="geometry" />
        </mxCell>
        <mxCell id="4cX4B9I3oI0uWcWU1Viy-87" value="Arme" style="swimlane;fontStyle=2;align=center;verticalAlign=top;childLayout=stackLayout;horizontal=1;startSize=26;horizontalStack=0;resizeParent=1;resizeLast=0;collapsible=1;marginBottom=0;rounded=0;shadow=0;strokeWidth=1;" vertex="1" parent="1">
          <mxGeometry x="-150" y="560" width="160" height="140" as="geometry">
            <mxRectangle x="340" y="380" width="170" height="26" as="alternateBounds" />
          </mxGeometry>
        </mxCell>
        <mxCell id="4cX4B9I3oI0uWcWU1Viy-91" value="&lt;div&gt;-&amp;nbsp; int degat&lt;br&gt;&lt;/div&gt;" style="text;html=1;strokeColor=none;fillColor=none;align=left;verticalAlign=middle;whiteSpace=wrap;rounded=0;" vertex="1" parent="4cX4B9I3oI0uWcWU1Viy-87">
          <mxGeometry y="26" width="160" height="30" as="geometry" />
        </mxCell>
        <mxCell id="4cX4B9I3oI0uWcWU1Viy-92" value="" style="line;html=1;strokeWidth=1;align=left;verticalAlign=middle;spacingTop=-1;spacingLeft=3;spacingRight=3;rotatable=0;labelPosition=right;points=[];portConstraint=eastwest;" vertex="1" parent="4cX4B9I3oI0uWcWU1Viy-87">
          <mxGeometry y="56" width="160" height="28" as="geometry" />
        </mxCell>
        <mxCell id="4cX4B9I3oI0uWcWU1Viy-93" value="+ getDegat(): int" style="text;html=1;strokeColor=none;fillColor=none;align=left;verticalAlign=middle;whiteSpace=wrap;rounded=0;" vertex="1" parent="4cX4B9I3oI0uWcWU1Viy-87">
          <mxGeometry y="84" width="160" height="30" as="geometry" />
        </mxCell>
        <mxCell id="4cX4B9I3oI0uWcWU1Viy-99" value="Decor" style="swimlane;fontStyle=2;align=center;verticalAlign=top;childLayout=stackLayout;horizontal=1;startSize=26;horizontalStack=0;resizeParent=1;resizeLast=0;collapsible=1;marginBottom=0;rounded=0;shadow=0;strokeWidth=1;" vertex="1" parent="1">
          <mxGeometry x="-100" y="-10" width="220" height="120" as="geometry">
            <mxRectangle x="230" y="140" width="160" height="26" as="alternateBounds" />
          </mxGeometry>
        </mxCell>
        <mxCell id="4cX4B9I3oI0uWcWU1Viy-100" value="- int[2] dimension" style="text;align=left;verticalAlign=top;spacingLeft=4;spacingRight=4;overflow=hidden;rotatable=0;points=[[0,0.5],[1,0.5]];portConstraint=eastwest;rounded=0;shadow=0;html=0;" vertex="1" parent="4cX4B9I3oI0uWcWU1Viy-99">
          <mxGeometry y="26" width="220" height="26" as="geometry" />
        </mxCell>
        <mxCell id="4cX4B9I3oI0uWcWU1Viy-101" value="- Point position " style="text;html=1;strokeColor=none;fillColor=none;align=left;verticalAlign=middle;whiteSpace=wrap;rounded=0;" vertex="1" parent="4cX4B9I3oI0uWcWU1Viy-99">
          <mxGeometry y="52" width="220" height="30" as="geometry" />
        </mxCell>
        <mxCell id="4cX4B9I3oI0uWcWU1Viy-102" value="" style="line;html=1;strokeWidth=1;align=left;verticalAlign=middle;spacingTop=-1;spacingLeft=3;spacingRight=3;rotatable=0;labelPosition=right;points=[];portConstraint=eastwest;" vertex="1" parent="4cX4B9I3oI0uWcWU1Viy-99">
          <mxGeometry y="82" width="220" height="8" as="geometry" />
        </mxCell>
        <mxCell id="4cX4B9I3oI0uWcWU1Viy-103" value="+ afficheDecor() :void" style="text;html=1;strokeColor=none;fillColor=none;align=center;verticalAlign=middle;whiteSpace=wrap;rounded=0;" vertex="1" parent="4cX4B9I3oI0uWcWU1Viy-99">
          <mxGeometry y="90" width="220" height="30" as="geometry" />
        </mxCell>
        <mxCell id="4cX4B9I3oI0uWcWU1Viy-104" value="" style="endArrow=block;html=1;rounded=0;entryX=1.012;entryY=1.077;entryDx=0;entryDy=0;entryPerimeter=0;exitX=0;exitY=0.25;exitDx=0;exitDy=0;endFill=0;" edge="1" parent="1" source="4cX4B9I3oI0uWcWU1Viy-101" target="4cX4B9I3oI0uWcWU1Viy-27">
          <mxGeometry width="50" height="50" relative="1" as="geometry">
            <mxPoint x="-70" y="130" as="sourcePoint" />
            <mxPoint x="-20" y="80" as="targetPoint" />
          </mxGeometry>
        </mxCell>
        <mxCell id="4cX4B9I3oI0uWcWU1Viy-107" value="Png" style="swimlane;fontStyle=0;align=center;verticalAlign=top;childLayout=stackLayout;horizontal=1;startSize=26;horizontalStack=0;resizeParent=1;resizeLast=0;collapsible=1;marginBottom=0;rounded=0;shadow=0;strokeWidth=1;" vertex="1" parent="1">
          <mxGeometry x="-430" y="180" width="220" height="94" as="geometry">
            <mxRectangle x="230" y="140" width="160" height="26" as="alternateBounds" />
          </mxGeometry>
        </mxCell>
        <mxCell id="4cX4B9I3oI0uWcWU1Viy-136" value="- string : message" style="text;html=1;strokeColor=none;fillColor=none;align=center;verticalAlign=middle;whiteSpace=wrap;rounded=0;" vertex="1" parent="4cX4B9I3oI0uWcWU1Viy-107">
          <mxGeometry y="26" width="220" height="30" as="geometry" />
        </mxCell>
        <mxCell id="4cX4B9I3oI0uWcWU1Viy-108" value="" style="line;html=1;strokeWidth=1;align=left;verticalAlign=middle;spacingTop=-1;spacingLeft=3;spacingRight=3;rotatable=0;labelPosition=right;points=[];portConstraint=eastwest;" vertex="1" parent="4cX4B9I3oI0uWcWU1Viy-107">
          <mxGeometry y="56" width="220" height="8" as="geometry" />
        </mxCell>
        <mxCell id="4cX4B9I3oI0uWcWU1Viy-137" value="+ parler(): void" style="text;html=1;strokeColor=none;fillColor=none;align=center;verticalAlign=middle;whiteSpace=wrap;rounded=0;" vertex="1" parent="4cX4B9I3oI0uWcWU1Viy-107">
          <mxGeometry y="64" width="220" height="30" as="geometry" />
        </mxCell>
        <mxCell id="4cX4B9I3oI0uWcWU1Viy-109" value="Potion" style="swimlane;fontStyle=1;align=center;verticalAlign=top;childLayout=stackLayout;horizontal=1;startSize=26;horizontalStack=0;resizeParent=1;resizeParentMax=0;resizeLast=0;collapsible=1;marginBottom=0;whiteSpace=wrap;html=1;" vertex="1" parent="1">
          <mxGeometry x="-360" y="556" width="160" height="34" as="geometry" />
        </mxCell>
        <mxCell id="4cX4B9I3oI0uWcWU1Viy-111" value="" style="line;strokeWidth=1;fillColor=none;align=left;verticalAlign=middle;spacingTop=-1;spacingLeft=3;spacingRight=3;rotatable=0;labelPosition=right;points=[];portConstraint=eastwest;strokeColor=inherit;" vertex="1" parent="4cX4B9I3oI0uWcWU1Viy-109">
          <mxGeometry y="26" width="160" height="8" as="geometry" />
        </mxCell>
        <mxCell id="4cX4B9I3oI0uWcWU1Viy-118" value="&lt;i&gt;Object&lt;/i&gt;" style="swimlane;fontStyle=1;align=center;verticalAlign=top;childLayout=stackLayout;horizontal=1;startSize=26;horizontalStack=0;resizeParent=1;resizeParentMax=0;resizeLast=0;collapsible=1;marginBottom=0;whiteSpace=wrap;html=1;" vertex="1" parent="1">
          <mxGeometry x="-150" y="350" width="160" height="180" as="geometry" />
        </mxCell>
        <mxCell id="4cX4B9I3oI0uWcWU1Viy-88" value="- String name" style="text;align=left;verticalAlign=top;spacingLeft=4;spacingRight=4;overflow=hidden;rotatable=0;points=[[0,0.5],[1,0.5]];portConstraint=eastwest;" vertex="1" parent="4cX4B9I3oI0uWcWU1Viy-118">
          <mxGeometry y="26" width="160" height="26" as="geometry" />
        </mxCell>
        <mxCell id="4cX4B9I3oI0uWcWU1Viy-90" value="-&amp;nbsp; HP hp" style="text;html=1;strokeColor=none;fillColor=none;align=left;verticalAlign=middle;whiteSpace=wrap;rounded=0;" vertex="1" parent="4cX4B9I3oI0uWcWU1Viy-118">
          <mxGeometry y="52" width="160" height="30" as="geometry" />
        </mxCell>
        <mxCell id="4cX4B9I3oI0uWcWU1Viy-120" value="" style="line;strokeWidth=1;fillColor=none;align=left;verticalAlign=middle;spacingTop=-1;spacingLeft=3;spacingRight=3;rotatable=0;labelPosition=right;points=[];portConstraint=eastwest;strokeColor=inherit;" vertex="1" parent="4cX4B9I3oI0uWcWU1Viy-118">
          <mxGeometry y="82" width="160" height="8" as="geometry" />
        </mxCell>
        <mxCell id="4cX4B9I3oI0uWcWU1Viy-94" value="+ setHp() : void" style="text;html=1;strokeColor=none;fillColor=none;align=left;verticalAlign=middle;whiteSpace=wrap;rounded=0;" vertex="1" parent="4cX4B9I3oI0uWcWU1Viy-118">
          <mxGeometry y="90" width="160" height="30" as="geometry" />
        </mxCell>
        <mxCell id="4cX4B9I3oI0uWcWU1Viy-97" value="+ getHp() : int" style="text;html=1;strokeColor=none;fillColor=none;align=left;verticalAlign=middle;whiteSpace=wrap;rounded=0;" vertex="1" parent="4cX4B9I3oI0uWcWU1Viy-118">
          <mxGeometry y="120" width="160" height="30" as="geometry" />
        </mxCell>
        <mxCell id="4cX4B9I3oI0uWcWU1Viy-98" value="&lt;div&gt;+ getName() : String&lt;br&gt;&lt;/div&gt;" style="text;html=1;strokeColor=none;fillColor=none;align=left;verticalAlign=middle;whiteSpace=wrap;rounded=0;" vertex="1" parent="4cX4B9I3oI0uWcWU1Viy-118">
          <mxGeometry y="150" width="160" height="30" as="geometry" />
        </mxCell>
        <mxCell id="4cX4B9I3oI0uWcWU1Viy-124" value="" style="endArrow=block;html=1;rounded=0;entryX=0.5;entryY=1;entryDx=0;entryDy=0;exitX=0.5;exitY=0;exitDx=0;exitDy=0;endFill=0;" edge="1" parent="1" source="4cX4B9I3oI0uWcWU1Viy-109" target="4cX4B9I3oI0uWcWU1Viy-98">
          <mxGeometry width="50" height="50" relative="1" as="geometry">
            <mxPoint x="-100" y="620" as="sourcePoint" />
            <mxPoint x="-50" y="570" as="targetPoint" />
          </mxGeometry>
        </mxCell>
        <mxCell id="4cX4B9I3oI0uWcWU1Viy-127" value="" style="endArrow=block;html=1;rounded=0;entryX=0.5;entryY=1;entryDx=0;entryDy=0;exitX=0.5;exitY=0;exitDx=0;exitDy=0;endFill=0;" edge="1" parent="1" source="4cX4B9I3oI0uWcWU1Viy-87" target="4cX4B9I3oI0uWcWU1Viy-98">
          <mxGeometry width="50" height="50" relative="1" as="geometry">
            <mxPoint x="-100" y="620" as="sourcePoint" />
            <mxPoint x="-50" y="570" as="targetPoint" />
          </mxGeometry>
        </mxCell>
        <mxCell id="4cX4B9I3oI0uWcWU1Viy-128" value="" style="endArrow=block;html=1;rounded=0;entryX=0.5;entryY=1;entryDx=0;entryDy=0;exitX=0.5;exitY=0;exitDx=0;exitDy=0;endFill=0;" edge="1" parent="1" source="4cX4B9I3oI0uWcWU1Viy-80" target="4cX4B9I3oI0uWcWU1Viy-98">
          <mxGeometry width="50" height="50" relative="1" as="geometry">
            <mxPoint x="-100" y="620" as="sourcePoint" />
            <mxPoint x="-50" y="570" as="targetPoint" />
          </mxGeometry>
        </mxCell>
        <mxCell id="4cX4B9I3oI0uWcWU1Viy-134" value="" style="endArrow=block;html=1;rounded=0;entryX=0.5;entryY=1;entryDx=0;entryDy=0;exitX=0.5;exitY=0;exitDx=0;exitDy=0;endFill=0;" edge="1" parent="1" source="4cX4B9I3oI0uWcWU1Viy-77" target="4cX4B9I3oI0uWcWU1Viy-62">
          <mxGeometry width="50" height="50" relative="1" as="geometry">
            <mxPoint x="-440" y="120" as="sourcePoint" />
            <mxPoint x="-390" y="70" as="targetPoint" />
          </mxGeometry>
        </mxCell>
        <mxCell id="4cX4B9I3oI0uWcWU1Viy-135" value="" style="endArrow=block;html=1;rounded=0;entryX=0.526;entryY=0.875;entryDx=0;entryDy=0;entryPerimeter=0;exitX=0.5;exitY=0;exitDx=0;exitDy=0;endFill=0;" edge="1" parent="1" source="4cX4B9I3oI0uWcWU1Viy-107" target="4cX4B9I3oI0uWcWU1Viy-64">
          <mxGeometry width="50" height="50" relative="1" as="geometry">
            <mxPoint x="-390" y="140" as="sourcePoint" />
            <mxPoint x="-390" y="70" as="targetPoint" />
          </mxGeometry>
        </mxCell>
        <mxCell id="4cX4B9I3oI0uWcWU1Viy-141" value="HP" style="swimlane;fontStyle=0;align=center;verticalAlign=top;childLayout=stackLayout;horizontal=1;startSize=26;horizontalStack=0;resizeParent=1;resizeLast=0;collapsible=1;marginBottom=0;rounded=0;shadow=0;strokeWidth=1;" vertex="1" parent="1">
          <mxGeometry x="-1370" y="-10" width="160" height="206" as="geometry">
            <mxRectangle x="130" y="380" width="160" height="26" as="alternateBounds" />
          </mxGeometry>
        </mxCell>
        <mxCell id="4cX4B9I3oI0uWcWU1Viy-142" value="- int vieTotale" style="text;align=left;verticalAlign=top;spacingLeft=4;spacingRight=4;overflow=hidden;rotatable=0;points=[[0,0.5],[1,0.5]];portConstraint=eastwest;" vertex="1" parent="4cX4B9I3oI0uWcWU1Viy-141">
          <mxGeometry y="26" width="160" height="26" as="geometry" />
        </mxCell>
        <mxCell id="4cX4B9I3oI0uWcWU1Viy-143" value="-int vieRestante" style="text;align=left;verticalAlign=top;spacingLeft=4;spacingRight=4;overflow=hidden;rotatable=0;points=[[0,0.5],[1,0.5]];portConstraint=eastwest;rounded=0;shadow=0;html=0;" vertex="1" parent="4cX4B9I3oI0uWcWU1Viy-141">
          <mxGeometry y="52" width="160" height="26" as="geometry" />
        </mxCell>
        <mxCell id="4cX4B9I3oI0uWcWU1Viy-144" value="" style="line;html=1;strokeWidth=1;align=left;verticalAlign=middle;spacingTop=-1;spacingLeft=3;spacingRight=3;rotatable=0;labelPosition=right;points=[];portConstraint=eastwest;" vertex="1" parent="4cX4B9I3oI0uWcWU1Viy-141">
          <mxGeometry y="78" width="160" height="8" as="geometry" />
        </mxCell>
        <mxCell id="4cX4B9I3oI0uWcWU1Viy-145" value="&lt;div align=&quot;left&quot;&gt;+ getVieTotale() : int&lt;br&gt;&lt;/div&gt;" style="text;html=1;align=center;verticalAlign=middle;resizable=0;points=[];autosize=1;strokeColor=none;fillColor=none;" vertex="1" parent="4cX4B9I3oI0uWcWU1Viy-141">
          <mxGeometry y="86" width="160" height="30" as="geometry" />
        </mxCell>
        <mxCell id="4cX4B9I3oI0uWcWU1Viy-146" value="+ getVieRestante() : int" style="text;html=1;strokeColor=none;fillColor=none;align=center;verticalAlign=middle;whiteSpace=wrap;rounded=0;" vertex="1" parent="4cX4B9I3oI0uWcWU1Viy-141">
          <mxGeometry y="116" width="160" height="30" as="geometry" />
        </mxCell>
        <mxCell id="4cX4B9I3oI0uWcWU1Viy-147" value="+ setVieRestante(): int" style="text;html=1;strokeColor=none;fillColor=none;align=center;verticalAlign=middle;whiteSpace=wrap;rounded=0;" vertex="1" parent="4cX4B9I3oI0uWcWU1Viy-141">
          <mxGeometry y="146" width="160" height="30" as="geometry" />
        </mxCell>
        <mxCell id="4cX4B9I3oI0uWcWU1Viy-148" value="MiniMap" style="swimlane;fontStyle=0;align=center;verticalAlign=top;childLayout=stackLayout;horizontal=1;startSize=26;horizontalStack=0;resizeParent=1;resizeLast=0;collapsible=1;marginBottom=0;rounded=0;shadow=0;strokeWidth=1;" vertex="1" parent="1">
          <mxGeometry x="-120" y="-480" width="220" height="262" as="geometry">
            <mxRectangle x="230" y="140" width="160" height="26" as="alternateBounds" />
          </mxGeometry>
        </mxCell>
        <mxCell id="4cX4B9I3oI0uWcWU1Viy-149" value="- int[2] dimension" style="text;align=left;verticalAlign=top;spacingLeft=4;spacingRight=4;overflow=hidden;rotatable=0;points=[[0,0.5],[1,0.5]];portConstraint=eastwest;rounded=0;shadow=0;html=0;" vertex="1" parent="4cX4B9I3oI0uWcWU1Viy-148">
          <mxGeometry y="26" width="220" height="26" as="geometry" />
        </mxCell>
        <mxCell id="4cX4B9I3oI0uWcWU1Viy-163" value="- String name" style="text;html=1;strokeColor=none;fillColor=none;align=center;verticalAlign=middle;whiteSpace=wrap;rounded=0;" vertex="1" parent="4cX4B9I3oI0uWcWU1Viy-148">
          <mxGeometry y="52" width="220" height="30" as="geometry" />
        </mxCell>
        <mxCell id="4cX4B9I3oI0uWcWU1Viy-164" value="- Texture :skin" style="text;html=1;strokeColor=none;fillColor=none;align=center;verticalAlign=middle;whiteSpace=wrap;rounded=0;" vertex="1" parent="4cX4B9I3oI0uWcWU1Viy-148">
          <mxGeometry y="82" width="220" height="30" as="geometry" />
        </mxCell>
        <mxCell id="4cX4B9I3oI0uWcWU1Viy-165" value="&lt;div&gt;- Sprite : sprite&lt;/div&gt;" style="text;strokeColor=none;fillColor=none;align=left;verticalAlign=top;spacingLeft=4;spacingRight=4;overflow=hidden;rotatable=0;points=[[0,0.5],[1,0.5]];portConstraint=eastwest;whiteSpace=wrap;html=1;" vertex="1" parent="4cX4B9I3oI0uWcWU1Viy-148">
          <mxGeometry y="112" width="220" height="26" as="geometry" />
        </mxCell>
        <mxCell id="4cX4B9I3oI0uWcWU1Viy-150" value="- Point positionPlayer2" style="text;html=1;strokeColor=none;fillColor=none;align=left;verticalAlign=middle;whiteSpace=wrap;rounded=0;" vertex="1" parent="4cX4B9I3oI0uWcWU1Viy-148">
          <mxGeometry y="138" width="220" height="30" as="geometry" />
        </mxCell>
        <mxCell id="4cX4B9I3oI0uWcWU1Viy-151" value="- Point positionPlayer1" style="text;html=1;strokeColor=none;fillColor=none;align=left;verticalAlign=middle;whiteSpace=wrap;rounded=0;" vertex="1" parent="4cX4B9I3oI0uWcWU1Viy-148">
          <mxGeometry y="168" width="220" height="30" as="geometry" />
        </mxCell>
        <mxCell id="4cX4B9I3oI0uWcWU1Viy-152" value="" style="line;html=1;strokeWidth=1;align=left;verticalAlign=middle;spacingTop=-1;spacingLeft=3;spacingRight=3;rotatable=0;labelPosition=right;points=[];portConstraint=eastwest;" vertex="1" parent="4cX4B9I3oI0uWcWU1Viy-148">
          <mxGeometry y="198" width="220" height="8" as="geometry" />
        </mxCell>
        <mxCell id="4cX4B9I3oI0uWcWU1Viy-166" value="-setUpSprites(string : spriteName) :bool" style="text;strokeColor=none;fillColor=none;align=left;verticalAlign=top;spacingLeft=4;spacingRight=4;overflow=hidden;rotatable=0;points=[[0,0.5],[1,0.5]];portConstraint=eastwest;whiteSpace=wrap;html=1;" vertex="1" parent="4cX4B9I3oI0uWcWU1Viy-148">
          <mxGeometry y="206" width="220" height="26" as="geometry" />
        </mxCell>
        <mxCell id="4cX4B9I3oI0uWcWU1Viy-153" value="+ afficheplan() :void" style="text;html=1;strokeColor=none;fillColor=none;align=center;verticalAlign=middle;whiteSpace=wrap;rounded=0;" vertex="1" parent="4cX4B9I3oI0uWcWU1Viy-148">
          <mxGeometry y="232" width="220" height="30" as="geometry" />
        </mxCell>
        <mxCell id="4cX4B9I3oI0uWcWU1Viy-155" value="" style="endArrow=diamondThin;html=1;rounded=0;entryX=0;entryY=0.25;entryDx=0;entryDy=0;exitX=1.001;exitY=-0.176;exitDx=0;exitDy=0;exitPerimeter=0;endFill=1;" edge="1" parent="1" source="4cX4B9I3oI0uWcWU1Viy-142" target="4cX4B9I3oI0uWcWU1Viy-45">
          <mxGeometry width="50" height="50" relative="1" as="geometry">
            <mxPoint x="-970" y="10" as="sourcePoint" />
            <mxPoint x="-920" y="-40" as="targetPoint" />
          </mxGeometry>
        </mxCell>
        <mxCell id="4cX4B9I3oI0uWcWU1Viy-158" value="" style="endArrow=diamondThin;html=1;rounded=0;endFill=1;entryX=0.465;entryY=0.875;entryDx=0;entryDy=0;entryPerimeter=0;" edge="1" parent="1" source="4cX4B9I3oI0uWcWU1Viy-15" target="4cX4B9I3oI0uWcWU1Viy-34">
          <mxGeometry width="50" height="50" relative="1" as="geometry">
            <mxPoint x="-375" y="-210" as="sourcePoint" />
            <mxPoint x="-10" y="-730" as="targetPoint" />
          </mxGeometry>
        </mxCell>
        <mxCell id="4cX4B9I3oI0uWcWU1Viy-159" value="" style="endArrow=diamondThin;html=1;rounded=0;entryX=0.5;entryY=1;entryDx=0;entryDy=0;exitX=0.5;exitY=0;exitDx=0;exitDy=0;endFill=1;" edge="1" parent="1" source="4cX4B9I3oI0uWcWU1Viy-168" target="4cX4B9I3oI0uWcWU1Viy-32">
          <mxGeometry width="50" height="50" relative="1" as="geometry">
            <mxPoint x="-365" y="-200" as="sourcePoint" />
            <mxPoint x="-335" y="-414" as="targetPoint" />
          </mxGeometry>
        </mxCell>
        <mxCell id="4cX4B9I3oI0uWcWU1Viy-168" value="&lt;i&gt;displayable&lt;/i&gt;" style="swimlane;fontStyle=1;align=center;verticalAlign=top;childLayout=stackLayout;horizontal=1;startSize=26;horizontalStack=0;resizeParent=1;resizeParentMax=0;resizeLast=0;collapsible=1;marginBottom=0;whiteSpace=wrap;html=1;" vertex="1" parent="1">
          <mxGeometry x="60" y="-670" width="160" height="86" as="geometry" />
        </mxCell>
        <mxCell id="4cX4B9I3oI0uWcWU1Viy-169" value="+ field: type" style="text;strokeColor=none;fillColor=none;align=left;verticalAlign=top;spacingLeft=4;spacingRight=4;overflow=hidden;rotatable=0;points=[[0,0.5],[1,0.5]];portConstraint=eastwest;whiteSpace=wrap;html=1;" vertex="1" parent="4cX4B9I3oI0uWcWU1Viy-168">
          <mxGeometry y="26" width="160" height="26" as="geometry" />
        </mxCell>
        <mxCell id="4cX4B9I3oI0uWcWU1Viy-170" value="" style="line;strokeWidth=1;fillColor=none;align=left;verticalAlign=middle;spacingTop=-1;spacingLeft=3;spacingRight=3;rotatable=0;labelPosition=right;points=[];portConstraint=eastwest;strokeColor=inherit;" vertex="1" parent="4cX4B9I3oI0uWcWU1Viy-168">
          <mxGeometry y="52" width="160" height="8" as="geometry" />
        </mxCell>
        <mxCell id="4cX4B9I3oI0uWcWU1Viy-171" value="+ method(type): type" style="text;strokeColor=none;fillColor=none;align=left;verticalAlign=top;spacingLeft=4;spacingRight=4;overflow=hidden;rotatable=0;points=[[0,0.5],[1,0.5]];portConstraint=eastwest;whiteSpace=wrap;html=1;" vertex="1" parent="4cX4B9I3oI0uWcWU1Viy-168">
          <mxGeometry y="60" width="160" height="26" as="geometry" />
        </mxCell>
        <mxCell id="4cX4B9I3oI0uWcWU1Viy-172" value="" style="endArrow=block;html=1;rounded=0;entryX=0.503;entryY=1.22;entryDx=0;entryDy=0;entryPerimeter=0;exitX=0.5;exitY=0;exitDx=0;exitDy=0;endFill=0;" edge="1" parent="1" source="4cX4B9I3oI0uWcWU1Viy-148" target="4cX4B9I3oI0uWcWU1Viy-171">
          <mxGeometry width="50" height="50" relative="1" as="geometry">
            <mxPoint x="40" y="-380" as="sourcePoint" />
            <mxPoint x="90" y="-430" as="targetPoint" />
          </mxGeometry>
        </mxCell>
        <mxCell id="4cX4B9I3oI0uWcWU1Viy-173" value="LifeBar" style="swimlane;fontStyle=1;align=center;verticalAlign=top;childLayout=stackLayout;horizontal=1;startSize=26;horizontalStack=0;resizeParent=1;resizeParentMax=0;resizeLast=0;collapsible=1;marginBottom=0;whiteSpace=wrap;html=1;" vertex="1" parent="1">
          <mxGeometry x="170" y="-486" width="160" height="86" as="geometry" />
        </mxCell>
        <mxCell id="4cX4B9I3oI0uWcWU1Viy-174" value="+ field: type" style="text;strokeColor=none;fillColor=none;align=left;verticalAlign=top;spacingLeft=4;spacingRight=4;overflow=hidden;rotatable=0;points=[[0,0.5],[1,0.5]];portConstraint=eastwest;whiteSpace=wrap;html=1;" vertex="1" parent="4cX4B9I3oI0uWcWU1Viy-173">
          <mxGeometry y="26" width="160" height="26" as="geometry" />
        </mxCell>
        <mxCell id="4cX4B9I3oI0uWcWU1Viy-175" value="" style="line;strokeWidth=1;fillColor=none;align=left;verticalAlign=middle;spacingTop=-1;spacingLeft=3;spacingRight=3;rotatable=0;labelPosition=right;points=[];portConstraint=eastwest;strokeColor=inherit;" vertex="1" parent="4cX4B9I3oI0uWcWU1Viy-173">
          <mxGeometry y="52" width="160" height="8" as="geometry" />
        </mxCell>
        <mxCell id="4cX4B9I3oI0uWcWU1Viy-176" value="+ method(type): type" style="text;strokeColor=none;fillColor=none;align=left;verticalAlign=top;spacingLeft=4;spacingRight=4;overflow=hidden;rotatable=0;points=[[0,0.5],[1,0.5]];portConstraint=eastwest;whiteSpace=wrap;html=1;" vertex="1" parent="4cX4B9I3oI0uWcWU1Viy-173">
          <mxGeometry y="60" width="160" height="26" as="geometry" />
        </mxCell>
        <mxCell id="4cX4B9I3oI0uWcWU1Viy-177" value="PlayerBag" style="swimlane;fontStyle=1;align=center;verticalAlign=top;childLayout=stackLayout;horizontal=1;startSize=26;horizontalStack=0;resizeParent=1;resizeParentMax=0;resizeLast=0;collapsible=1;marginBottom=0;whiteSpace=wrap;html=1;" vertex="1" parent="1">
          <mxGeometry x="413" y="-490" width="160" height="86" as="geometry" />
        </mxCell>
        <mxCell id="4cX4B9I3oI0uWcWU1Viy-178" value="+ field: type" style="text;strokeColor=none;fillColor=none;align=left;verticalAlign=top;spacingLeft=4;spacingRight=4;overflow=hidden;rotatable=0;points=[[0,0.5],[1,0.5]];portConstraint=eastwest;whiteSpace=wrap;html=1;" vertex="1" parent="4cX4B9I3oI0uWcWU1Viy-177">
          <mxGeometry y="26" width="160" height="26" as="geometry" />
        </mxCell>
        <mxCell id="4cX4B9I3oI0uWcWU1Viy-179" value="" style="line;strokeWidth=1;fillColor=none;align=left;verticalAlign=middle;spacingTop=-1;spacingLeft=3;spacingRight=3;rotatable=0;labelPosition=right;points=[];portConstraint=eastwest;strokeColor=inherit;" vertex="1" parent="4cX4B9I3oI0uWcWU1Viy-177">
          <mxGeometry y="52" width="160" height="8" as="geometry" />
        </mxCell>
        <mxCell id="4cX4B9I3oI0uWcWU1Viy-180" value="+ method(type): type" style="text;strokeColor=none;fillColor=none;align=left;verticalAlign=top;spacingLeft=4;spacingRight=4;overflow=hidden;rotatable=0;points=[[0,0.5],[1,0.5]];portConstraint=eastwest;whiteSpace=wrap;html=1;" vertex="1" parent="4cX4B9I3oI0uWcWU1Viy-177">
          <mxGeometry y="60" width="160" height="26" as="geometry" />
        </mxCell>
        <mxCell id="4cX4B9I3oI0uWcWU1Viy-181" value="Pause" style="swimlane;fontStyle=1;align=center;verticalAlign=top;childLayout=stackLayout;horizontal=1;startSize=26;horizontalStack=0;resizeParent=1;resizeParentMax=0;resizeLast=0;collapsible=1;marginBottom=0;whiteSpace=wrap;html=1;" vertex="1" parent="1">
          <mxGeometry x="650" y="-488" width="160" height="86" as="geometry" />
        </mxCell>
        <mxCell id="4cX4B9I3oI0uWcWU1Viy-182" value="+ field: type" style="text;strokeColor=none;fillColor=none;align=left;verticalAlign=top;spacingLeft=4;spacingRight=4;overflow=hidden;rotatable=0;points=[[0,0.5],[1,0.5]];portConstraint=eastwest;whiteSpace=wrap;html=1;" vertex="1" parent="4cX4B9I3oI0uWcWU1Viy-181">
          <mxGeometry y="26" width="160" height="26" as="geometry" />
        </mxCell>
        <mxCell id="4cX4B9I3oI0uWcWU1Viy-183" value="" style="line;strokeWidth=1;fillColor=none;align=left;verticalAlign=middle;spacingTop=-1;spacingLeft=3;spacingRight=3;rotatable=0;labelPosition=right;points=[];portConstraint=eastwest;strokeColor=inherit;" vertex="1" parent="4cX4B9I3oI0uWcWU1Viy-181">
          <mxGeometry y="52" width="160" height="8" as="geometry" />
        </mxCell>
        <mxCell id="4cX4B9I3oI0uWcWU1Viy-184" value="+ method(type): type" style="text;strokeColor=none;fillColor=none;align=left;verticalAlign=top;spacingLeft=4;spacingRight=4;overflow=hidden;rotatable=0;points=[[0,0.5],[1,0.5]];portConstraint=eastwest;whiteSpace=wrap;html=1;" vertex="1" parent="4cX4B9I3oI0uWcWU1Viy-181">
          <mxGeometry y="60" width="160" height="26" as="geometry" />
        </mxCell>
        <mxCell id="4cX4B9I3oI0uWcWU1Viy-186" value="" style="endArrow=block;html=1;rounded=0;entryX=0.537;entryY=1.22;entryDx=0;entryDy=0;entryPerimeter=0;exitX=0.5;exitY=0;exitDx=0;exitDy=0;endFill=0;" edge="1" parent="1" source="4cX4B9I3oI0uWcWU1Viy-173" target="4cX4B9I3oI0uWcWU1Viy-171">
          <mxGeometry width="50" height="50" relative="1" as="geometry">
            <mxPoint y="-470" as="sourcePoint" />
            <mxPoint x="150" y="-568" as="targetPoint" />
          </mxGeometry>
        </mxCell>
        <mxCell id="4cX4B9I3oI0uWcWU1Viy-187" value="" style="endArrow=block;html=1;rounded=0;entryX=0.81;entryY=1.22;entryDx=0;entryDy=0;entryPerimeter=0;exitX=0.5;exitY=0;exitDx=0;exitDy=0;endFill=0;" edge="1" parent="1" source="4cX4B9I3oI0uWcWU1Viy-177" target="4cX4B9I3oI0uWcWU1Viy-171">
          <mxGeometry width="50" height="50" relative="1" as="geometry">
            <mxPoint x="10" y="-460" as="sourcePoint" />
            <mxPoint x="160" y="-558" as="targetPoint" />
          </mxGeometry>
        </mxCell>
        <mxCell id="4cX4B9I3oI0uWcWU1Viy-188" value="" style="endArrow=block;html=1;rounded=0;entryX=1.026;entryY=-0.038;entryDx=0;entryDy=0;entryPerimeter=0;exitX=0.5;exitY=0;exitDx=0;exitDy=0;endFill=0;" edge="1" parent="1" source="4cX4B9I3oI0uWcWU1Viy-181" target="4cX4B9I3oI0uWcWU1Viy-171">
          <mxGeometry width="50" height="50" relative="1" as="geometry">
            <mxPoint x="20" y="-450" as="sourcePoint" />
            <mxPoint x="170" y="-548" as="targetPoint" />
          </mxGeometry>
        </mxCell>
      </root>
    </mxGraphModel>
  </diagram>
</mxfile>
